<?xml version="1.0" encoding="UTF-8" standalone="no"?>
<!-- Created with Inkscape (http://www.inkscape.org/) -->

<svg
   xmlns:svg="http://www.w3.org/2000/svg"
   xmlns="http://www.w3.org/2000/svg"
   version="1.1"
   width="370"
   height="110"
   id="svg2"
   xml:space="preserve"><defs
     id="defs6"><clipPath
       id="clipPath18"><path
         d="m 43.7,755.5 c 0,0 -7.2,0 -7.2,-7.2 l 0,0 0,-165.846 539,0.535 0,165.311 c 0,0 0,7.2 -7.2,7.2 l 0,0 -524.6,0 z"
         id="path20" /></clipPath><clipPath
       id="clipPath32"><path
         d="M 0,0 612,0 612,792 0,792 0,0 z"
         id="path34" /></clipPath><clipPath
       id="clipPath44"><path
         d="m 311.2,326.5 c 0,0 -7.2,0 -7.2,-7.2 l 0,0 0,-233.35 c 0,0 0,-7.2 7.2,-7.2 l 0,0 237.6,0 c 0,0 7.2,0 7.2,7.2 l 0,0 0,233.35 c 0,0 0,7.2 -7.2,7.2 l 0,0 -237.6,0 z"
         id="path46" /></clipPath><clipPath
       id="clipPath58"><path
         d="M 0,0 612,0 612,792 0,792 0,0 z"
         id="path60" /></clipPath><clipPath
       id="clipPath262"><path
         d="M 0,0 612,0 612,792 0,792 0,0 z"
         id="path264" /></clipPath></defs><g
     transform="matrix(1.25,0,0,-1.25,-910.51826,799.43692)"
     id="g12"><text
       transform="matrix(1,0,0,-1,57,701.4763)"
       id="text250"><tspan
         x="0 16.007999 23.016001 36.023998"
         y="0"
         id="tspan252"
         style="font-size:24px;font-variant:normal;font-weight:500;font-stretch:normal;writing-mode:lr-tb;fill:#ffffff;fill-opacity:1;fill-rule:nonzero;stroke:none;font-family:AG Book Rounded Regular;-inkscape-font-specification:AGBookRounded-Medium">BIXI</tspan></text>
<g
       transform="translate(1.9923258,3.2268366)"
       id="g3125"><g
         transform="matrix(3.6132407,0,0,3.6132407,828.54051,594.69442)"
         id="g66"
         style="fill:#d52b1e;fill-opacity:1"><path
           d="m 0,0 c -0.417,0.758 -1.339,1.717 -2.83,1.735 -0.011,10e-4 -0.023,10e-4 -0.035,10e-4 -0.011,0 -10.096,-10e-4 -10.096,-10e-4 l 0.123,0.159 0.155,0.181 c 0,0 0.234,0.308 0.574,0.754 l 2.646,3.386 c 0,0.001 10e-4,0.001 10e-4,0.001 0,10e-4 0,10e-4 0,0.002 l 10e-4,0 c 0.927,1.189 0.716,2.903 -0.472,3.831 -1.188,0.928 -2.903,0.718 -3.831,-0.469 l -0.001,0 -6.128,-7.844 -3.281,0 C -23.648,1.735 -24.073,1.521 -24.36,1.187 l -0.008,-0.009 -2.116,-2.705 c -0.101,-0.151 -0.16,-0.332 -0.16,-0.527 0,-0.52 0.415,-0.896 0.932,-0.909 l 2.151,0 -3.571,-4.567 c -0.928,-1.188 -0.718,-2.904 0.471,-3.832 0.572,-0.447 1.266,-0.629 1.935,-0.567 2.264,0 15.12,10e-4 15.131,10e-4 1.495,0.019 3.62,1.212 4.771,2.696 0.002,0.003 4.584,5.887 4.584,5.887 C 0.099,-2.89 0.776,-1.411 0,0 m -13.389,-7.153 -6.497,0 3.259,4.189 8.22,-10e-4 0,0.002 c 0.024,0 0.051,0.002 0.074,0 l 0.072,0 c 0.456,-0.011 0.831,-0.389 0.831,-0.848 0,-0.173 -0.052,-0.333 -0.142,-0.467 l -1.869,-2.389 -0.007,-0.009 c -0.254,-0.295 -0.629,-0.483 -1.048,-0.484 l -2.893,0.007 z"
           id="path68"
           style="fill:#d52b1e;fill-opacity:1;fill-rule:nonzero;stroke:none" /></g><g
         transform="matrix(3.6132407,0,0,3.6132407,864.02615,569.99142)"
         id="g70"
         style="fill:#d52b1e;fill-opacity:1"><path
           d="m 0,0 c -1.307,-0.752 -1.757,-2.421 -1.005,-3.728 0.752,-1.306 2.421,-1.757 3.728,-1.005 l 10.7,6.154 0,-3.789 0,-0.004 c 0,-1.508 1.222,-2.73 2.73,-2.73 1.508,0 2.731,1.222 2.731,2.73 l 0,0.004 0,6.252 L 6.703,3.856 0,0 z"
           id="path72"
           style="fill:#d52b1e;fill-opacity:1;fill-rule:nonzero;stroke:none" /></g><g
         transform="matrix(3.6132407,0,0,3.6132407,984.86665,628.11256)"
         id="g74"
         style="fill:#d52b1e;fill-opacity:1"><path
           d="m 0,0 c -0.752,1.306 -2.419,1.757 -3.727,1.006 l -10.833,-6.23 0,3.871 c -10e-4,1.507 -1.223,2.729 -2.731,2.729 -1.507,0 -2.729,-1.222 -2.73,-2.729 l 0.028,-6.229 12.317,0 6.67,3.853 c 0,0 0.001,10e-4 0.001,10e-4 l 10e-4,0 0,0.001 C 0.302,-2.975 0.751,-1.307 0,0"
           id="path76"
           style="fill:#d52b1e;fill-opacity:1;fill-rule:nonzero;stroke:none" /></g><g
         transform="matrix(3.6132407,0,0,3.6132407,1016.6386,631.00352)"
         id="g78"
         style="fill:#d52b1e;fill-opacity:1"><path
           d="m 0,0 c -1.188,0.928 -2.903,0.718 -3.831,-0.469 l -6.161,-7.885 6.93,0 3.531,4.52 c 0.001,10e-4 0.001,10e-4 0.002,10e-4 0,0.001 0,0.001 0,0.002 l 0.001,0 C 1.398,-2.642 1.188,-0.928 0,0"
           id="path80"
           style="fill:#d52b1e;fill-opacity:1;fill-rule:nonzero;stroke:none" /></g><g
         transform="matrix(3.6132407,0,0,3.6132407,954.49591,567.4878)"
         id="g82"
         style="fill:#d52b1e;fill-opacity:1"><path
           d="m 0,0 c -0.928,-1.188 -0.718,-2.904 0.47,-3.832 1.189,-0.929 2.904,-0.717 3.833,0.47 l 6.198,7.923 -6.931,0 L 0,0 z"
           id="path84"
           style="fill:#d52b1e;fill-opacity:1;fill-rule:nonzero;stroke:none" /></g><g
         transform="matrix(3.6132407,0,0,3.6132407,888.94125,631.00352)"
         id="g86"
         style="fill:#d52b1e;fill-opacity:1"><path
           d="m 0,0 c -1.188,0.928 -2.903,0.718 -3.831,-0.469 l -6.118,-7.885 6.93,0 3.489,4.52 c 0,10e-4 0,10e-4 0.001,10e-4 0,0.001 0,0.001 0.001,0.002 l 0,0 C 1.399,-2.642 1.188,-0.928 0,0"
           id="path88"
           style="fill:#d52b1e;fill-opacity:1;fill-rule:nonzero;stroke:none" /></g><g
         transform="matrix(3.6132407,0,0,3.6132407,826.79748,567.4878)"
         id="g90"
         style="fill:#d52b1e;fill-opacity:1"><path
           d="m 0,0 c -0.928,-1.188 -0.718,-2.904 0.471,-3.832 1.188,-0.929 2.904,-0.717 3.832,0.47 l 6.324,7.965 -6.93,0 L 0,0 z"
           id="path92"
           style="fill:#d52b1e;fill-opacity:1;fill-rule:nonzero;stroke:none" /></g></g></g></svg>